<?xml version="1.0" encoding="UTF-8"?>
<svg id="Calque_2" data-name="Calque 2" xmlns="http://www.w3.org/2000/svg" viewBox="0 0 239.85 52.06">
  <defs>
    <style>
      .cls-1 {
        fill: #fff;
      }
    </style>
  </defs>
  <g id="Calque_1-2" data-name="Calque 1">
    <g>
      <path class="cls-1" d="M91.35,49.4c-3.08,0-5.85-.69-8.31-2.07-2.46-1.38-4.39-3.29-5.79-5.73-1.4-2.44-2.1-5.32-2.1-8.64s.7-6.2,2.1-8.64c1.4-2.44,3.33-4.34,5.79-5.7,2.46-1.36,5.23-2.04,8.31-2.04,2.68,0,5.08.59,7.2,1.77,2.12,1.18,3.8,2.97,5.04,5.37,1.24,2.4,1.86,5.48,1.86,9.24s-.6,6.79-1.8,9.21c-1.2,2.42-2.86,4.23-4.98,5.43-2.12,1.2-4.56,1.8-7.32,1.8ZM92.25,42.98c1.8,0,3.41-.4,4.83-1.2,1.42-.8,2.56-1.96,3.42-3.48.86-1.52,1.29-3.3,1.29-5.34s-.43-3.87-1.29-5.37c-.86-1.5-2-2.65-3.42-3.45-1.42-.8-3.03-1.2-4.83-1.2s-3.41.4-4.83,1.2c-1.42.8-2.56,1.95-3.42,3.45-.86,1.5-1.29,3.29-1.29,5.37s.43,3.82,1.29,5.34c.86,1.52,2,2.68,3.42,3.48,1.42.8,3.03,1.2,4.83,1.2ZM101.97,48.98v-7.56l.3-8.52-.6-8.52V4.46h7.44v44.52h-7.14Z"/>
      <path class="cls-1" d="M128.67,49.4c-2.4,0-4.5-.41-6.3-1.23-1.8-.82-3.19-1.96-4.17-3.42-.98-1.46-1.47-3.11-1.47-4.95s.43-3.42,1.29-4.86c.86-1.44,2.27-2.58,4.23-3.42,1.96-.84,4.56-1.26,7.8-1.26h9.3v4.98h-8.76c-2.56,0-4.28.41-5.16,1.23-.88.82-1.32,1.83-1.32,3.03,0,1.36.54,2.44,1.62,3.24,1.08.8,2.58,1.2,4.5,1.2s3.49-.42,4.95-1.26c1.46-.84,2.51-2.08,3.15-3.72l1.26,4.5c-.72,1.88-2.01,3.34-3.87,4.38s-4.21,1.56-7.05,1.56ZM138.75,48.98v-6.48l-.42-1.38v-11.34c0-2.2-.66-3.91-1.98-5.13-1.32-1.22-3.32-1.83-6-1.83-1.8,0-3.57.28-5.31.84-1.74.56-3.21,1.34-4.41,2.34l-2.94-5.46c1.72-1.32,3.77-2.31,6.15-2.97,2.38-.66,4.85-.99,7.41-.99,4.64,0,8.23,1.11,10.77,3.33,2.54,2.22,3.81,5.65,3.81,10.29v18.78h-7.08Z"/>
      <path class="cls-1" d="M155.43,48.98V4.46h7.5v44.52h-7.5Z"/>
      <path class="cls-1" d="M176.55,11.66c-1.4,0-2.55-.44-3.45-1.32s-1.35-1.94-1.35-3.18.45-2.35,1.35-3.21c.9-.86,2.05-1.29,3.45-1.29s2.55.41,3.45,1.23c.9.82,1.35,1.85,1.35,3.09,0,1.32-.44,2.43-1.32,3.33s-2.04,1.35-3.48,1.35ZM172.77,48.98V16.94h7.5v32.04h-7.5Z"/>
      <path class="cls-1" d="M190.11,48.98V4.46h7.5v19.92l-.6,8.52.24,8.52v7.56h-7.14ZM207.87,49.4c-2.72,0-5.14-.6-7.26-1.8s-3.79-3.01-5.01-5.43c-1.22-2.42-1.83-5.49-1.83-9.21s.63-6.84,1.89-9.24c1.26-2.4,2.96-4.19,5.1-5.37,2.14-1.18,4.51-1.77,7.11-1.77,3.16,0,5.95.68,8.37,2.04,2.42,1.36,4.34,3.26,5.76,5.7,1.42,2.44,2.13,5.32,2.13,8.64s-.71,6.2-2.13,8.64c-1.42,2.44-3.34,4.35-5.76,5.73-2.42,1.38-5.21,2.07-8.37,2.07ZM207.03,42.98c1.8,0,3.41-.4,4.83-1.2,1.42-.8,2.55-1.96,3.39-3.48.84-1.52,1.26-3.3,1.26-5.34s-.42-3.87-1.26-5.37c-.84-1.5-1.97-2.65-3.39-3.45-1.42-.8-3.03-1.2-4.83-1.2s-3.42.4-4.86,1.2c-1.44.8-2.58,1.95-3.42,3.45-.84,1.5-1.26,3.29-1.26,5.37s.42,3.82,1.26,5.34c.84,1.52,1.98,2.68,3.42,3.48,1.44.8,3.06,1.2,4.86,1.2Z"/>
      <path class="cls-1" d="M235.05,11.66c-1.4,0-2.55-.44-3.45-1.32s-1.35-1.94-1.35-3.18.45-2.35,1.35-3.21c.9-.86,2.05-1.29,3.45-1.29s2.55.41,3.45,1.23c.9.82,1.35,1.85,1.35,3.09,0,1.32-.44,2.43-1.32,3.33s-2.04,1.35-3.48,1.35ZM231.27,48.98V16.94h7.5v32.04h-7.5Z"/>
    </g>
    <g>
      <path class="cls-1" d="M38.88,46.19c-1.94.67-3.34,2.51-3.34,4.67v1.2h-6.07v-.4c0-2.55-1.68-4.72-4-5.47H0v-28.89h27.29c2.66,0,4.82,2.15,4.82,4.81,0-2.66,2.15-4.81,4.81-4.81h27.29v28.89h-25.33Z"/>
      <path class="cls-1" d="M64.28,0v12.15h-6v-6.15h-17.56c-2.73,0-4.95,2.22-4.95,4.95v1.2h-6.04v-.4c0-3.17-2.58-5.75-5.75-5.75H6.42v6.15H.42V0h23.56c3.37,0,6.41,1.42,8.55,3.69,2-2.27,4.93-3.69,8.19-3.69h23.56Z"/>
    </g>
  </g>
</svg>