<?xml version="1.0" encoding="UTF-8"?>
<svg id="Calque_2" data-name="Calque 2" xmlns="http://www.w3.org/2000/svg" viewBox="0 0 64.28 52.06">
  <defs>
    <style>
      .cls-1 {
        fill: #1d71b8;
      }
    </style>
  </defs>
  <g id="Calque_1-2" data-name="Calque 1">
    <g>
      <path class="cls-1" d="M38.88,46.19c-1.94.67-3.34,2.51-3.34,4.67v1.2h-6.07v-.4c0-2.55-1.68-4.72-4-5.47H0v-28.89h27.29c2.66,0,4.82,2.15,4.82,4.81,0-2.66,2.15-4.81,4.81-4.81h27.29v28.89h-25.33Z"/>
      <path class="cls-1" d="M64.28,0v12.15h-6v-6.15h-17.56c-2.73,0-4.95,2.22-4.95,4.95v1.2h-6.04v-.4c0-3.17-2.58-5.75-5.75-5.75H6.42v6.15H.42V0h23.56c3.37,0,6.41,1.42,8.55,3.69,2-2.27,4.93-3.69,8.19-3.69h23.56Z"/>
    </g>
  </g>
</svg>